# xmcd
#
# Track frame offsets:
# 150
# 21439
# 39480
# 58061
# 78049
# 90367
# 107405
# 122474
# 143189
# 159123
# 177133
# 190252
# 210256
# 230904
# 249154
# 266424
# 278704
# 293437
#
# Disc length: 4141 seconds
#
# Revision: 0
# Processed by: cddbd v1.5.1PL0 Copyright (c) Steve Scherf et al.
# Submitted via: Audion 3.0.2 (http://www.panic.com/audion/)
#
DISCID=df102b12
DTITLE=Mix - ITunes
DYEAR=1900
DGENRE=
TTITLE0=Anna Nalick-Breathe
TTITLE1=Bebo Norman-YesIWill
TTITLE2=BonnieMckee-Trouble
TTITLE3=DenieceWilliams-The Boy
TTITLE4=The Donnas-TakeItOff
TTITLE5=ErinODonnell-WideWideWorld
TTITLE6=ErinODonnell-AllOfThis
TTITLE7=LaurenChristy-WalkThisWorldAlone
TTITLE8=LizPhair-WhyCantI
TTITLE9=MandyMoore-Candy
TTITLE10=MattJones-SoundsLikeThunder
TTITLE11=MercyMe-Imagine
TTITLE12=Newsboys-AmazingLove
TTITLE13=Outkast-HeyYa
TTITLE14=SherylCrow-1stCutIsDeepest
TTITLE15=TracyChapman-Revolution
TTITLE16=TracyChapman-ForMyLover
TTITLE17=Tree63-BlessedBeTheName
EXTD=
EXTT0=
EXTT1=
EXTT2=
EXTT3=
EXTT4=
EXTT5=
EXTT6=
EXTT7=
EXTT8=
EXTT9=
EXTT10=
EXTT11=
EXTT12=
EXTT13=
EXTT14=
EXTT15=
EXTT16=
EXTT17=
PLAYORDER=
